<svg width="15" height="11" viewBox="0 0 15 11" fill="none" xmlns="http://www.w3.org/2000/svg">
<path fill-rule="evenodd" clip-rule="evenodd" d="M10.875 5.5C11.91 5.5 12.7425 4.62 12.7425 3.53571C12.7425 2.45143 11.91 1.57143 10.875 1.57143C9.84 1.57143 9 2.45143 9 3.53571C9 4.62 9.84 5.5 10.875 5.5ZM5.25 4.71429C6.495 4.71429 7.4925 3.66143 7.4925 2.35714C7.4925 1.05286 6.495 0 5.25 0C4.005 0 3 1.05286 3 2.35714C3 3.66143 4.005 4.71429 5.25 4.71429ZM10.875 7.07143C9.5025 7.07143 6.75 7.79429 6.75 9.23214V11H15V9.23214C15 7.79429 12.2475 7.07143 10.875 7.07143ZM5.25 6.28571C3.5025 6.28571 0 7.205 0 9.03571V11H5.25V9.23214C5.25 8.56429 5.4975 7.39357 7.0275 6.50571C6.375 6.36429 5.745 6.28571 5.25 6.28571Z" fill="#BFDAF9"/>
</svg>
