<svg width="9" height="12" viewBox="0 0 9 12" fill="none" xmlns="http://www.w3.org/2000/svg">
<path fill-rule="evenodd" clip-rule="evenodd" d="M0 4.22222C0 1.89409 1.89409 0 4.22225 0C6.55038 0 8.44445 1.89409 8.44449 4.22222C8.44449 7.11151 4.666 11.3532 4.50512 11.5323C4.35429 11.7003 4.09047 11.7006 3.93937 11.5323C3.7785 11.3532 0 7.11151 0 4.22222ZM2.09795 4.22222C2.09795 5.39358 3.05089 6.34654 4.22225 6.34654C5.39358 6.34654 6.34652 5.3936 6.34652 4.22225C6.34652 3.05089 5.39358 2.09793 4.22225 2.09793C3.05091 2.09793 2.09795 3.05087 2.09795 4.22222Z" fill="#4398FA"/>
</svg>
